<svg xmlns="http://www.w3.org/2000/svg" viewBox="0 0 48 48" width="48px" height="48px">
  <path fill="#4285F4" d="M24 9.5c3.23 0 6.15 1.12 8.47 2.98l6.36-6.36C34.84 2.47 29.69 0 24 0 14.6 0 6.8 5.8 3.38 14.03l7.79 6.06C12.9 13.83 17.96 9.5 24 9.5z"></path>
  <path fill="#34A853" d="M46.57 24.5c0-1.56-.13-3.06-.36-4.5H24v8.5h12.84c-.56 2.9-2.15 5.33-4.49 7l7.79 6.06C44.79 37.87 46.57 31.64 46.57 24.5z"></path>
  <path fill="#FBBC05" d="M10.17 28.09a14.49 14.49 0 010-8.18l-7.79-6.06A24 24 0 000 24c0 3.78.87 7.34 2.38 10.47l7.79-6.06z"></path>
  <path fill="#EA4335" d="M24 48c6.5 0 11.96-2.14 15.95-5.79l-7.79-6.06C29.66 37.88 27.01 39 24 39c-6.04 0-11.1-4.33-12.83-10.09l-7.79 6.06C6.8 42.2 14.6 48 24 48z"></path>
</svg>
